<?xml version="1.0" encoding="utf-8"?>
<!-- Generator: Adobe Illustrator 23.0.2, SVG Export Plug-In . SVG Version: 6.00 Build 0)  -->
<svg version="1.1" id="Camada_1" xmlns="http://www.w3.org/2000/svg" xmlns:xlink="http://www.w3.org/1999/xlink" x="0px" y="0px"
	 viewBox="0 0 150 150" style="enable-background:new 0 0 150 150;" xml:space="preserve">
<style type="text/css">
	.st0{fill:#0C0C0C;}
	.st1{clip-path:url(#SVGID_2_);fill:#60E6AF;}
	.st2{clip-path:url(#SVGID_2_);fill:#61E6AE;}
	.st3{clip-path:url(#SVGID_2_);fill:#62E6AD;}
	.st4{clip-path:url(#SVGID_2_);fill:#63E6AC;}
	.st5{clip-path:url(#SVGID_2_);fill:#64E6AB;}
	.st6{clip-path:url(#SVGID_2_);fill:#65E6AA;}
	.st7{clip-path:url(#SVGID_2_);fill:#66E6A9;}
	.st8{clip-path:url(#SVGID_2_);fill:#67E7A8;}
	.st9{clip-path:url(#SVGID_2_);fill:#68E7A7;}
	.st10{clip-path:url(#SVGID_2_);fill:#69E7A6;}
	.st11{clip-path:url(#SVGID_2_);fill:#6AE7A5;}
	.st12{clip-path:url(#SVGID_2_);fill:#6BE7A4;}
	.st13{clip-path:url(#SVGID_2_);fill:#6CE7A3;}
	.st14{clip-path:url(#SVGID_2_);fill:#6DE7A2;}
	.st15{clip-path:url(#SVGID_2_);fill:#6EE7A1;}
	.st16{clip-path:url(#SVGID_2_);fill:#6FE7A0;}
	.st17{clip-path:url(#SVGID_2_);fill:#70E79F;}
	.st18{clip-path:url(#SVGID_2_);fill:#71E79E;}
	.st19{clip-path:url(#SVGID_2_);fill:#72E79D;}
	.st20{clip-path:url(#SVGID_2_);fill:#73E79C;}
	.st21{clip-path:url(#SVGID_2_);fill:#74E89B;}
	.st22{clip-path:url(#SVGID_2_);fill:#75E89A;}
	.st23{clip-path:url(#SVGID_2_);fill:#76E899;}
	.st24{clip-path:url(#SVGID_2_);fill:#77E898;}
	.st25{clip-path:url(#SVGID_2_);fill:#78E897;}
	.st26{clip-path:url(#SVGID_2_);fill:#79E896;}
	.st27{clip-path:url(#SVGID_2_);fill:#7AE895;}
	.st28{clip-path:url(#SVGID_2_);fill:#7BE894;}
	.st29{clip-path:url(#SVGID_2_);fill:#7CE893;}
	.st30{clip-path:url(#SVGID_2_);fill:#7DE892;}
	.st31{clip-path:url(#SVGID_2_);fill:#7EE891;}
	.st32{clip-path:url(#SVGID_2_);fill:#7FE890;}
	.st33{clip-path:url(#SVGID_2_);fill:#80E88F;}
	.st34{clip-path:url(#SVGID_2_);fill:#81E98E;}
	.st35{clip-path:url(#SVGID_2_);fill:#82E98D;}
	.st36{clip-path:url(#SVGID_2_);fill:#83E98C;}
	.st37{clip-path:url(#SVGID_2_);fill:#84E98B;}
	.st38{clip-path:url(#SVGID_2_);fill:#85E98A;}
	.st39{clip-path:url(#SVGID_2_);fill:#86E989;}
	.st40{clip-path:url(#SVGID_2_);fill:#87E988;}
	.st41{clip-path:url(#SVGID_2_);fill:#88E986;}
	.st42{clip-path:url(#SVGID_2_);fill:#89E985;}
	.st43{clip-path:url(#SVGID_2_);fill:#8AE984;}
	.st44{clip-path:url(#SVGID_2_);fill:#8BE983;}
	.st45{clip-path:url(#SVGID_2_);fill:#8CE982;}
	.st46{clip-path:url(#SVGID_2_);fill:#8DE981;}
	.st47{clip-path:url(#SVGID_2_);fill:#8EEA80;}
	.st48{clip-path:url(#SVGID_2_);fill:#8FEA7F;}
	.st49{clip-path:url(#SVGID_2_);fill:#90EA7E;}
	.st50{clip-path:url(#SVGID_2_);fill:#91EA7D;}
	.st51{clip-path:url(#SVGID_2_);fill:#92EA7C;}
	.st52{clip-path:url(#SVGID_2_);fill:#93EA7B;}
	.st53{clip-path:url(#SVGID_2_);fill:#94EA7A;}
	.st54{clip-path:url(#SVGID_2_);fill:#95EA79;}
	.st55{clip-path:url(#SVGID_2_);fill:#96EA78;}
	.st56{clip-path:url(#SVGID_2_);fill:#97EA77;}
	.st57{clip-path:url(#SVGID_2_);fill:#98EA76;}
	.st58{clip-path:url(#SVGID_2_);fill:#99EA75;}
	.st59{clip-path:url(#SVGID_2_);fill:#9AEA74;}
	.st60{clip-path:url(#SVGID_2_);fill:#9BEB73;}
	.st61{clip-path:url(#SVGID_2_);fill:#9CEB72;}
	.st62{clip-path:url(#SVGID_2_);fill:#9DEB71;}
	.st63{clip-path:url(#SVGID_2_);fill:#9EEB70;}
	.st64{clip-path:url(#SVGID_2_);fill:#9FEB6F;}
	.st65{clip-path:url(#SVGID_2_);fill:#A0EB6E;}
	.st66{clip-path:url(#SVGID_2_);fill:#A1EB6D;}
	.st67{clip-path:url(#SVGID_2_);fill:#A2EB6C;}
	.st68{clip-path:url(#SVGID_2_);fill:#A3EB6B;}
	.st69{clip-path:url(#SVGID_2_);fill:#A4EB6A;}
	.st70{clip-path:url(#SVGID_2_);fill:#A5EB69;}
	.st71{clip-path:url(#SVGID_2_);fill:#A6EB68;}
	.st72{clip-path:url(#SVGID_2_);fill:#A7EB67;}
	.st73{clip-path:url(#SVGID_2_);fill:#A8EC66;}
	.st74{clip-path:url(#SVGID_2_);fill:#A9EC65;}
	.st75{clip-path:url(#SVGID_2_);fill:#AAEC64;}
	.st76{clip-path:url(#SVGID_2_);fill:#ABEC63;}
	.st77{clip-path:url(#SVGID_2_);fill:#ACEC62;}
	.st78{clip-path:url(#SVGID_2_);fill:#ADEC61;}
	.st79{clip-path:url(#SVGID_2_);fill:#AEEC60;}
	.st80{opacity:0.64;}
	.st81{fill:#232323;}
	.st82{fill:#F3F3F3;}
	.st83{fill:url(#SVGID_3_);}
</style>
<g>
	<g>
		<path class="st0" d="M131.63,149.21H18.37c-9.71,0-17.59-7.87-17.59-17.59V18.37c0-9.71,7.87-17.59,17.59-17.59h113.26
			c9.71,0,17.59,7.87,17.59,17.59v113.26C149.21,141.34,141.34,149.21,131.63,149.21z"/>
	</g>
	<g>
		<g>
			<defs>
				<path id="SVGID_1_" d="M131.88,149.88H18.12c-9.92,0-18-8.07-18-18V18.12c0-9.92,8.07-18,18-18h113.76c9.92,0,18,8.07,18,18
					v113.76C149.88,141.8,141.8,149.88,131.88,149.88z M18.12,1.45c-9.19,0-16.67,7.48-16.67,16.67v113.76
					c0,9.19,7.48,16.67,16.67,16.67h113.76c9.19,0,16.67-7.48,16.67-16.67V18.12c0-9.19-7.48-16.67-16.67-16.67H18.12z"/>
			</defs>
			<clipPath id="SVGID_2_">
				<use xlink:href="#SVGID_1_"  style="overflow:visible;"/>
			</clipPath>
			<rect x="1.45" y="1.45" class="st1" width="0.57" height="147.1"/>
			<rect x="2.02" y="1.45" class="st2" width="1.9" height="147.1"/>
			<rect x="3.91" y="1.45" class="st3" width="1.9" height="147.1"/>
			<rect x="5.81" y="1.45" class="st4" width="1.9" height="147.1"/>
			<rect x="7.71" y="1.45" class="st5" width="1.9" height="147.1"/>
			<rect x="9.6" y="1.45" class="st6" width="1.9" height="147.1"/>
			<rect x="11.5" y="1.45" class="st7" width="1.9" height="147.1"/>
			<rect x="13.39" y="1.45" class="st8" width="1.9" height="147.1"/>
			<rect x="15.29" y="1.45" class="st9" width="1.9" height="147.1"/>
			<rect x="17.18" y="1.45" class="st10" width="1.9" height="147.1"/>
			<rect x="19.08" y="1.45" class="st11" width="1.9" height="147.1"/>
			<rect x="20.97" y="1.45" class="st12" width="1.9" height="147.1"/>
			<rect x="22.87" y="1.45" class="st13" width="1.9" height="147.1"/>
			<rect x="24.77" y="1.45" class="st14" width="1.9" height="147.1"/>
			<rect x="26.66" y="1.45" class="st15" width="1.9" height="147.1"/>
			<rect x="28.56" y="1.45" class="st16" width="1.9" height="147.1"/>
			<rect x="30.45" y="1.45" class="st17" width="1.9" height="147.1"/>
			<rect x="32.35" y="1.45" class="st18" width="1.9" height="147.1"/>
			<rect x="34.24" y="1.45" class="st19" width="1.9" height="147.1"/>
			<rect x="36.14" y="1.45" class="st20" width="1.9" height="147.1"/>
			<rect x="38.04" y="1.45" class="st21" width="1.9" height="147.1"/>
			<rect x="39.93" y="1.45" class="st22" width="1.9" height="147.1"/>
			<rect x="41.83" y="1.45" class="st23" width="1.9" height="147.1"/>
			<rect x="43.72" y="1.45" class="st24" width="1.9" height="147.1"/>
			<rect x="45.62" y="1.45" class="st25" width="1.9" height="147.1"/>
			<rect x="47.51" y="1.45" class="st26" width="1.9" height="147.1"/>
			<rect x="49.41" y="1.45" class="st27" width="1.9" height="147.1"/>
			<rect x="51.3" y="1.45" class="st28" width="1.9" height="147.1"/>
			<rect x="53.2" y="1.45" class="st29" width="1.9" height="147.1"/>
			<rect x="55.1" y="1.45" class="st30" width="1.9" height="147.1"/>
			<rect x="56.99" y="1.45" class="st31" width="1.9" height="147.1"/>
			<rect x="58.89" y="1.45" class="st32" width="1.9" height="147.1"/>
			<rect x="60.78" y="1.45" class="st33" width="1.9" height="147.1"/>
			<rect x="62.68" y="1.45" class="st34" width="1.9" height="147.1"/>
			<rect x="64.57" y="1.45" class="st35" width="1.9" height="147.1"/>
			<rect x="66.47" y="1.45" class="st36" width="1.9" height="147.1"/>
			<rect x="68.37" y="1.45" class="st37" width="1.9" height="147.1"/>
			<rect x="70.26" y="1.45" class="st38" width="1.9" height="147.1"/>
			<rect x="72.16" y="1.45" class="st39" width="1.9" height="147.1"/>
			<rect x="74.05" y="1.45" class="st40" width="1.9" height="147.1"/>
			<rect x="75.95" y="1.45" class="st41" width="1.9" height="147.1"/>
			<rect x="77.84" y="1.45" class="st42" width="1.9" height="147.1"/>
			<rect x="79.74" y="1.45" class="st43" width="1.9" height="147.1"/>
			<rect x="81.63" y="1.45" class="st44" width="1.9" height="147.1"/>
			<rect x="83.53" y="1.45" class="st45" width="1.9" height="147.1"/>
			<rect x="85.43" y="1.45" class="st46" width="1.9" height="147.1"/>
			<rect x="87.32" y="1.45" class="st47" width="1.9" height="147.1"/>
			<rect x="89.22" y="1.45" class="st48" width="1.9" height="147.1"/>
			<rect x="91.11" y="1.45" class="st49" width="1.9" height="147.1"/>
			<rect x="93.01" y="1.45" class="st50" width="1.9" height="147.1"/>
			<rect x="94.9" y="1.45" class="st51" width="1.9" height="147.1"/>
			<rect x="96.8" y="1.45" class="st52" width="1.9" height="147.1"/>
			<rect x="98.7" y="1.45" class="st53" width="1.9" height="147.1"/>
			<rect x="100.59" y="1.45" class="st54" width="1.9" height="147.1"/>
			<rect x="102.49" y="1.45" class="st55" width="1.9" height="147.1"/>
			<rect x="104.38" y="1.45" class="st56" width="1.9" height="147.1"/>
			<rect x="106.28" y="1.45" class="st57" width="1.9" height="147.1"/>
			<rect x="108.17" y="1.45" class="st58" width="1.9" height="147.1"/>
			<rect x="110.07" y="1.45" class="st59" width="1.9" height="147.1"/>
			<rect x="111.96" y="1.45" class="st60" width="1.9" height="147.1"/>
			<rect x="113.86" y="1.45" class="st61" width="1.9" height="147.1"/>
			<rect x="115.76" y="1.45" class="st62" width="1.9" height="147.1"/>
			<rect x="117.65" y="1.45" class="st63" width="1.9" height="147.1"/>
			<rect x="119.55" y="1.45" class="st64" width="1.9" height="147.1"/>
			<rect x="121.44" y="1.45" class="st65" width="1.9" height="147.1"/>
			<rect x="123.34" y="1.45" class="st66" width="1.9" height="147.1"/>
			<rect x="125.23" y="1.45" class="st67" width="1.9" height="147.1"/>
			<rect x="127.13" y="1.45" class="st68" width="1.9" height="147.1"/>
			<rect x="129.03" y="1.45" class="st69" width="1.9" height="147.1"/>
			<rect x="130.92" y="1.45" class="st70" width="1.9" height="147.1"/>
			<rect x="132.82" y="1.45" class="st71" width="1.9" height="147.1"/>
			<rect x="134.71" y="1.45" class="st72" width="1.9" height="147.1"/>
			<rect x="136.61" y="1.45" class="st73" width="1.9" height="147.1"/>
			<rect x="138.5" y="1.45" class="st74" width="1.9" height="147.1"/>
			<rect x="140.4" y="1.45" class="st75" width="1.9" height="147.1"/>
			<rect x="142.29" y="1.45" class="st76" width="1.9" height="147.1"/>
			<rect x="144.19" y="1.45" class="st77" width="1.9" height="147.1"/>
			<rect x="146.09" y="1.45" class="st78" width="1.9" height="147.1"/>
			<rect x="147.98" y="1.45" class="st79" width="0.57" height="147.1"/>
			<path class="st1" d="M0.12,0.12v149.75V0.12z"/>
			<rect x="0.12" y="0.12" class="st1" width="1.9" height="149.75"/>
			<rect x="2.02" y="0.12" class="st2" width="1.9" height="149.75"/>
			<rect x="3.91" y="0.12" class="st3" width="1.9" height="149.75"/>
			<rect x="5.81" y="0.12" class="st4" width="1.9" height="149.75"/>
			<rect x="7.71" y="0.12" class="st5" width="1.9" height="149.75"/>
			<rect x="9.6" y="0.12" class="st6" width="1.9" height="149.75"/>
			<rect x="11.5" y="0.12" class="st7" width="1.9" height="149.75"/>
			<rect x="13.39" y="0.12" class="st8" width="1.9" height="149.75"/>
			<rect x="15.29" y="0.12" class="st9" width="1.9" height="149.75"/>
			<rect x="17.18" y="0.12" class="st10" width="1.9" height="149.75"/>
			<rect x="19.08" y="0.12" class="st11" width="1.9" height="149.75"/>
			<rect x="20.97" y="0.12" class="st12" width="1.9" height="149.75"/>
			<rect x="22.87" y="0.12" class="st13" width="1.9" height="149.75"/>
			<rect x="24.77" y="0.12" class="st14" width="1.9" height="149.75"/>
			<rect x="26.66" y="0.12" class="st15" width="1.9" height="149.75"/>
			<rect x="28.56" y="0.12" class="st16" width="1.9" height="149.75"/>
			<rect x="30.45" y="0.12" class="st17" width="1.9" height="149.75"/>
			<rect x="32.35" y="0.12" class="st18" width="1.9" height="149.75"/>
			<rect x="34.24" y="0.12" class="st19" width="1.9" height="149.75"/>
			<rect x="36.14" y="0.12" class="st20" width="1.9" height="149.75"/>
			<rect x="38.04" y="0.12" class="st21" width="1.9" height="149.75"/>
			<rect x="39.93" y="0.12" class="st22" width="1.9" height="149.75"/>
			<rect x="41.83" y="0.12" class="st23" width="1.9" height="149.75"/>
			<rect x="43.72" y="0.12" class="st24" width="1.9" height="149.75"/>
			<rect x="45.62" y="0.12" class="st25" width="1.9" height="149.75"/>
			<rect x="47.51" y="0.12" class="st26" width="1.9" height="149.75"/>
			<rect x="49.41" y="0.12" class="st27" width="1.9" height="149.75"/>
			<rect x="51.3" y="0.12" class="st28" width="1.9" height="149.75"/>
			<rect x="53.2" y="0.12" class="st29" width="1.9" height="149.75"/>
			<rect x="55.1" y="0.12" class="st30" width="1.9" height="149.75"/>
			<rect x="56.99" y="0.12" class="st31" width="1.9" height="149.75"/>
			<rect x="58.89" y="0.12" class="st32" width="1.9" height="149.75"/>
			<rect x="60.78" y="0.12" class="st33" width="1.9" height="149.75"/>
			<rect x="62.68" y="0.12" class="st34" width="1.9" height="149.75"/>
			<rect x="64.57" y="0.12" class="st35" width="1.9" height="149.75"/>
			<rect x="66.47" y="0.12" class="st36" width="1.9" height="149.75"/>
			<rect x="68.37" y="0.12" class="st37" width="1.9" height="149.75"/>
			<rect x="70.26" y="0.12" class="st38" width="1.9" height="149.75"/>
			<rect x="72.16" y="0.12" class="st39" width="1.9" height="149.75"/>
			<rect x="74.05" y="0.12" class="st40" width="1.9" height="149.75"/>
			<rect x="75.95" y="0.12" class="st41" width="1.9" height="149.75"/>
			<rect x="77.84" y="0.12" class="st42" width="1.9" height="149.75"/>
			<rect x="79.74" y="0.12" class="st43" width="1.9" height="149.75"/>
			<rect x="81.63" y="0.12" class="st44" width="1.9" height="149.75"/>
			<rect x="83.53" y="0.12" class="st45" width="1.9" height="149.75"/>
			<rect x="85.43" y="0.12" class="st46" width="1.9" height="149.75"/>
			<rect x="87.32" y="0.12" class="st47" width="1.9" height="149.75"/>
			<rect x="89.22" y="0.12" class="st48" width="1.9" height="149.75"/>
			<rect x="91.11" y="0.12" class="st49" width="1.9" height="149.75"/>
			<rect x="93.01" y="0.12" class="st50" width="1.9" height="149.75"/>
			<rect x="94.9" y="0.12" class="st51" width="1.9" height="149.75"/>
			<rect x="96.8" y="0.12" class="st52" width="1.9" height="149.75"/>
			<rect x="98.7" y="0.12" class="st53" width="1.9" height="149.75"/>
			<rect x="100.59" y="0.12" class="st54" width="1.9" height="149.75"/>
			<rect x="102.49" y="0.12" class="st55" width="1.9" height="149.75"/>
			<rect x="104.38" y="0.12" class="st56" width="1.9" height="149.75"/>
			<rect x="106.28" y="0.12" class="st57" width="1.9" height="149.75"/>
			<rect x="108.17" y="0.12" class="st58" width="1.9" height="149.75"/>
			<rect x="110.07" y="0.12" class="st59" width="1.9" height="149.75"/>
			<rect x="111.96" y="0.12" class="st60" width="1.9" height="149.75"/>
			<rect x="113.86" y="0.12" class="st61" width="1.9" height="149.75"/>
			<rect x="115.76" y="0.12" class="st62" width="1.9" height="149.75"/>
			<rect x="117.65" y="0.12" class="st63" width="1.9" height="149.75"/>
			<rect x="119.55" y="0.12" class="st64" width="1.9" height="149.75"/>
			<rect x="121.44" y="0.12" class="st65" width="1.9" height="149.75"/>
			<rect x="123.34" y="0.12" class="st66" width="1.9" height="149.75"/>
			<rect x="125.23" y="0.12" class="st67" width="1.9" height="149.75"/>
			<rect x="127.13" y="0.12" class="st68" width="1.9" height="149.75"/>
			<rect x="129.03" y="0.12" class="st69" width="1.9" height="149.75"/>
			<rect x="130.92" y="0.12" class="st70" width="1.9" height="149.75"/>
			<rect x="132.82" y="0.12" class="st71" width="1.9" height="149.75"/>
			<rect x="134.71" y="0.12" class="st72" width="1.9" height="149.75"/>
			<rect x="136.61" y="0.12" class="st73" width="1.9" height="149.75"/>
			<rect x="138.5" y="0.12" class="st74" width="1.9" height="149.75"/>
			<rect x="140.4" y="0.12" class="st75" width="1.9" height="149.75"/>
			<rect x="142.29" y="0.12" class="st76" width="1.9" height="149.75"/>
			<rect x="144.19" y="0.12" class="st77" width="1.9" height="149.75"/>
			<rect x="146.09" y="0.12" class="st78" width="1.9" height="149.75"/>
			<rect x="147.98" y="0.12" class="st79" width="1.9" height="149.75"/>
			<path class="st79" d="M149.88,149.88V0.12V149.88z"/>
		</g>
	</g>
</g>
<g>
	<g class="st80">
		<g>
			<g>
				<g>
					<path class="st81" d="M38.31,81.36v20.73c0,8.4,3.64,11.82,10.7,11.82c8.25,0,12.56-3.86,12.56-12.34V81.36h6.24v37.15h-6.24
						v-6.61c-3.42,5.42-8.1,7.88-13.82,7.88c-10.4,0-15.68-6.91-15.68-14.12v-24.3H38.31z"/>
				</g>
				<g>
					<path class="st81" d="M91.44,80.18c10.77,0,18.95,8.62,19.1,19.69c0,0.82,0,1.64-0.07,2.38l-1.64,0.07h-30.1
						c1.41,6.99,6.39,11.96,12.71,11.96c4.83,0,8.84-2.67,11.07-6.84h6.69c-2.75,7.28-9.51,12.26-17.76,12.26
						c-10.92,0-19.1-8.55-19.1-19.84C72.34,88.57,80.52,80.18,91.44,80.18z M104.15,97.04c-1.41-6.69-6.17-11.44-12.63-11.44
						s-11.29,4.68-12.71,11.44H104.15z"/>
				</g>
				<g>
					<path class="st81" d="M119.92,93.12c-1.7,1.11-3.37,2.28-4.98,3.53v23.74h6.99V91.82C121.24,92.22,120.59,92.69,119.92,93.12z"
						/>
					<path class="st81" d="M114.94,79.96v10.09c2.26-1.85,4.59-3.6,6.99-5.26v-4.83C119.6,79.97,117.27,79.97,114.94,79.96z"/>
				</g>
			</g>
			<g>
				<g>
					<path class="st81" d="M21.44,61.48h6.32c0.45,3.2,4.38,6.24,11.44,6.24c5.28,0,8.4-1.78,8.4-5.13c0-3.57-3.42-4.9-9.29-6.39
						c-0.15,0-1.11-0.3-2.38-0.59C28.57,53.6,22.7,51.15,22.7,44.83c0-7.28,7.95-11.22,15.68-11.22c7.8,0,14.56,4.01,14.94,10.85
						h-6.24c-0.52-3.2-4.53-5.43-9.73-5.43c-5.05,0-8.4,2.08-8.4,5.5c0,3.86,4.01,4.46,8.69,5.87c0.45,0.15,1.11,0.3,1.41,0.37
						c8.47,2.45,14.71,4.98,14.71,12.41c0,7.88-7.06,9.96-13.6,9.96C30.95,73.14,22.11,69.13,21.44,61.48z"/>
				</g>
				<g>
					<path class="st81" d="M71,48.1h13.23v-7.88H62.76V34.8h27.72v37.15h-6.24v-6.32c-2.3,4.76-5.94,7.58-12.26,7.58
						c-8.99,0-15.38-5.28-15.38-12.86C56.59,52.26,63.5,48.17,71,48.1z M62.83,60.36c0,4.09,4.16,7.36,9.21,7.36
						c7.88,0,12.11-5.05,12.19-14.64H71.67c-5.35,0-8.84,2.82-8.84,7.13V60.36z"/>
				</g>
				<g>
					<path class="st81" d="M94.01,53.47c0-11.18,8.01-19.63,18.71-19.63c10.54,0,18.5,8.6,18.71,19.63
						c-0.11,4.79-1.67,9.14-4.25,12.47l5.38,7.37h-7.47l-2.37-3.23c-2.85,1.94-6.24,3.01-10,3.01
						C102.02,73.1,94.01,64.66,94.01,53.47z M100.41,53.47c0,7.85,5.22,13.82,12.31,13.82c2.47,0,4.68-0.7,6.51-1.94l-6.13-8.39
						h7.47l2.8,3.76c1.08-2.1,1.72-4.57,1.72-7.26c0-7.9-5.27-13.82-12.37-13.82C105.62,39.65,100.41,45.62,100.41,53.47z"/>
				</g>
			</g>
		</g>
	</g>
	<g>
		<g>
			<g>
				<g>
					<path class="st82" d="M36.31,79.36v20.73c0,8.4,3.64,11.82,10.7,11.82c8.25,0,12.56-3.86,12.56-12.34V79.36h6.24v37.15h-6.24
						v-6.61c-3.42,5.42-8.1,7.88-13.82,7.88c-10.4,0-15.68-6.91-15.68-14.12v-24.3H36.31z"/>
				</g>
				<g>
					<path class="st82" d="M89.44,78.18c10.77,0,18.95,8.62,19.1,19.69c0,0.82,0,1.64-0.07,2.38l-1.64,0.07h-30.1
						c1.41,6.99,6.39,11.96,12.71,11.96c4.83,0,8.84-2.67,11.07-6.84h6.69c-2.75,7.28-9.51,12.26-17.76,12.26
						c-10.92,0-19.1-8.55-19.1-19.84C70.34,86.57,78.52,78.18,89.44,78.18z M102.15,95.04c-1.41-6.69-6.17-11.44-12.63-11.44
						s-11.29,4.68-12.71,11.44H102.15z"/>
				</g>
				<g>
					<path class="st82" d="M117.92,91.12c-1.7,1.11-3.37,2.28-4.98,3.53v23.74h6.99V89.82C119.24,90.22,118.59,90.69,117.92,91.12z"
						/>
					<linearGradient id="SVGID_3_" gradientUnits="userSpaceOnUse" x1="112.9407" y1="83.0024" x2="119.9322" y2="83.0024">
						<stop  offset="0" style="stop-color:#60E6AF"/>
						<stop  offset="1" style="stop-color:#AEEC60"/>
					</linearGradient>
					<path class="st83" d="M112.94,77.96v10.09c2.26-1.85,4.59-3.6,6.99-5.26v-4.83C117.6,77.97,115.27,77.97,112.94,77.96z"/>
				</g>
			</g>
			<g>
				<g>
					<path class="st82" d="M19.44,59.48h6.32c0.45,3.2,4.38,6.24,11.44,6.24c5.28,0,8.4-1.78,8.4-5.13c0-3.57-3.42-4.9-9.29-6.39
						c-0.15,0-1.11-0.3-2.38-0.59C26.57,51.6,20.7,49.15,20.7,42.83c0-7.28,7.95-11.22,15.68-11.22c7.8,0,14.56,4.01,14.94,10.85
						h-6.24c-0.52-3.2-4.53-5.43-9.73-5.43c-5.05,0-8.4,2.08-8.4,5.5c0,3.86,4.01,4.46,8.69,5.87c0.45,0.15,1.11,0.3,1.41,0.37
						c8.47,2.45,14.71,4.98,14.71,12.41c0,7.88-7.06,9.96-13.6,9.96C28.95,71.14,20.11,67.13,19.44,59.48z"/>
				</g>
				<g>
					<path class="st82" d="M69,46.1h13.23v-7.88H60.76V32.8h27.72v37.15h-6.24v-6.32c-2.3,4.76-5.94,7.58-12.26,7.58
						c-8.99,0-15.38-5.28-15.38-12.86C54.59,50.26,61.5,46.17,69,46.1z M60.83,58.36c0,4.09,4.16,7.36,9.21,7.36
						c7.88,0,12.11-5.05,12.19-14.64H69.67c-5.35,0-8.84,2.82-8.84,7.13V58.36z"/>
				</g>
				<g>
					<path class="st82" d="M92.01,51.47c0-11.18,8.01-19.63,18.71-19.63c10.54,0,18.5,8.6,18.71,19.63
						c-0.11,4.79-1.67,9.14-4.25,12.47l5.38,7.37h-7.47l-2.37-3.23c-2.85,1.94-6.24,3.01-10,3.01
						C100.02,71.1,92.01,62.66,92.01,51.47z M98.41,51.47c0,7.85,5.22,13.82,12.31,13.82c2.47,0,4.68-0.7,6.51-1.94l-6.13-8.39h7.47
						l2.8,3.76c1.08-2.1,1.72-4.57,1.72-7.26c0-7.9-5.27-13.82-12.37-13.82C103.62,37.65,98.41,43.62,98.41,51.47z"/>
				</g>
			</g>
		</g>
	</g>
</g>
</svg>
