<?xml version="1.0" encoding="UTF-8"?><svg id="Camada_2" xmlns="http://www.w3.org/2000/svg" viewBox="0 0 138.32 35.86"><defs><style>.cls-1{fill:#fff;}</style></defs><g id="Camada_1-2"><g><g><path class="cls-1" d="M9.78,33.42c-.22-.35-.56-.4-.9-.4-.35,0-.9,.13-.9,.6,0,.38,.41,.47,.9,.56,.57,.11,1.16,.21,1.16,.85,0,.67-.68,.83-1.17,.83-.46,0-.99-.19-1.21-.64l.2-.1c.18,.36,.65,.54,1.01,.54s.94-.1,.94-.63c0-.44-.49-.54-.97-.63-.54-.11-1.1-.22-1.1-.76-.01-.63,.64-.82,1.12-.82,.42,0,.79,.07,1.08,.5l-.19,.11Z"/><path class="cls-1" d="M12.98,34.21h1.73v.21h-1.73v1.17h1.87v.22h-2.09v-2.96h2.04v.22h-1.82v1.15Z"/><path class="cls-1" d="M19.83,32.85v1.84c0,1.55-2.27,1.55-2.27,0v-1.84h.22v1.84c0,1.27,1.82,1.27,1.82,0v-1.84h.22Z"/><path class="cls-1" d="M26.27,34.79v1.02h-.23v-2.96h1.3c1.29,0,1.29,1.94,0,1.94h-1.07Zm0-1.73v1.52h1.07c.99,0,.99-1.52,0-1.52h-1.07Z"/><path class="cls-1" d="M33.38,35.81l-.33-.73h-1.77l-.32,.73h-.25l1.33-2.96h.25l1.33,2.96h-.25Zm-.41-.94l-.79-1.8-.8,1.8h1.59Z"/><path class="cls-1" d="M38.58,35.81h-.3l-1.02-1.12h-.81v1.12h-.23v-2.96h1.3c.64,0,.97,.46,.97,.92,0,.48-.31,.9-.96,.9l1.04,1.13Zm-2.13-1.34h1.05c.52,0,.74-.29,.75-.71,0-.35-.23-.71-.72-.71h-1.07v1.41Z"/><path class="cls-1" d="M43.62,35.4c-.3,.3-.69,.44-1.08,.44-1,0-1.52-.7-1.52-1.5,0-.79,.51-1.53,1.52-1.53,.39,0,.78,.15,1.08,.44l-.16,.14c-.25-.25-.59-.38-.92-.38-.86,0-1.31,.61-1.3,1.32,0,.69,.45,1.29,1.3,1.29,.33,0,.67-.13,.93-.38l.15,.14Z"/><path class="cls-1" d="M46.59,34.21h1.73v.21h-1.73v1.17h1.87v.22h-2.09v-2.96h2.04v.22h-1.82v1.15Z"/><path class="cls-1" d="M51.18,35.81v-2.96h.22v2.96h-.22Z"/><path class="cls-1" d="M56.63,35.81h-.3l-1.02-1.12h-.81v1.12h-.23v-2.96h1.3c.64,0,.97,.46,.97,.92,0,.48-.31,.9-.96,.9l1.04,1.13Zm-2.13-1.34h1.05c.52,0,.74-.29,.75-.71,0-.35-.23-.71-.72-.71h-1.07v1.41Z"/><path class="cls-1" d="M62.09,34.33c0,.78-.5,1.53-1.49,1.53s-1.49-.75-1.49-1.53,.49-1.52,1.49-1.52,1.5,.73,1.49,1.53Zm-2.76,0c0,.67,.43,1.32,1.27,1.32s1.27-.65,1.27-1.32-.42-1.32-1.27-1.32-1.27,.62-1.27,1.32Z"/><path class="cls-1" d="M68.44,34.21h1.73v.21h-1.73v1.17h1.87v.22h-2.09v-2.96h2.04v.22h-1.82v1.15Z"/><path class="cls-1" d="M75.61,33.18l-1.13,1.73h-.08l-1.14-1.73v2.63h-.23v-2.96h.27l1.13,1.73,1.12-1.73h.28v2.96h-.22v-2.63Z"/><path class="cls-1" d="M82.31,34.79v1.02h-.23v-2.96h1.3c1.29,0,1.29,1.94,0,1.94h-1.07Zm0-1.73v1.52h1.07c.99,0,.99-1.52,0-1.52h-1.07Z"/><path class="cls-1" d="M89.42,35.81l-.33-.73h-1.77l-.32,.73h-.25l1.33-2.96h.25l1.33,2.96h-.25Zm-.41-.94l-.79-1.8-.8,1.8h1.59Z"/><path class="cls-1" d="M94.45,33.39c-.26-.25-.62-.38-.95-.38-.87,0-1.31,.63-1.31,1.32,0,.7,.44,1.3,1.31,1.3,.32,0,.65-.11,.9-.34v-.83h-1.03v-.2h1.25v1.11c-.31,.31-.68,.48-1.12,.48-1.01,0-1.53-.7-1.53-1.51,0-.93,.63-1.53,1.53-1.53,.39,0,.78,.15,1.08,.44l-.13,.14Z"/><path class="cls-1" d="M99.8,35.81l-.33-.73h-1.77l-.32,.73h-.25l1.33-2.96h.25l1.33,2.96h-.25Zm-.41-.94l-.79-1.8-.8,1.8h1.59Z"/><path class="cls-1" d="M105.18,33.18l-1.13,1.73h-.08l-1.14-1.73v2.63h-.23v-2.96h.27l1.13,1.73,1.12-1.73h.28v2.96h-.22v-2.63Z"/><path class="cls-1" d="M108.49,34.21h1.73v.21h-1.73v1.17h1.87v.22h-2.09v-2.96h2.04v.22h-1.82v1.15Z"/><path class="cls-1" d="M113.27,32.85l1.99,2.45v-2.45h.22v2.96h-.09l-2-2.44v2.44h-.23v-2.96h.1Z"/><path class="cls-1" d="M119.2,33.06h-1.07v-.2h2.37v.2h-1.07v2.75h-.23v-2.75Z"/><path class="cls-1" d="M126,34.33c0,.78-.5,1.53-1.49,1.53s-1.49-.75-1.49-1.53,.49-1.52,1.49-1.52,1.5,.73,1.49,1.53Zm-2.76,0c0,.67,.43,1.32,1.27,1.32s1.27-.65,1.27-1.32-.42-1.32-1.27-1.32-1.27,.62-1.27,1.32Z"/><path class="cls-1" d="M130.76,33.42c-.22-.35-.56-.4-.9-.4-.35,0-.9,.13-.9,.6,0,.38,.41,.47,.9,.56,.57,.11,1.16,.21,1.16,.85,0,.67-.68,.83-1.17,.83-.46,0-.99-.19-1.21-.64l.2-.1c.18,.36,.65,.54,1.01,.54s.94-.1,.94-.63c0-.44-.49-.54-.97-.63-.54-.11-1.1-.22-1.1-.76-.01-.63,.64-.82,1.12-.82,.42,0,.79,.07,1.08,.5l-.19,.11Z"/></g><g><path class="cls-1" d="M7.73,16.94h3.81c.27,1.93,2.65,3.77,6.9,3.77,3.18,0,5.07-1.08,5.07-3.09,0-2.15-2.06-2.96-5.6-3.86-.09,0-.67-.18-1.43-.36-4.44-1.21-7.98-2.69-7.98-6.5C8.5,2.51,13.29,.13,17.95,.13s8.79,2.42,9.01,6.55h-3.77c-.31-1.93-2.73-3.27-5.87-3.27s-5.07,1.26-5.07,3.32c0,2.33,2.42,2.69,5.25,3.54,.27,.09,.67,.18,.85,.22,5.11,1.48,8.88,3,8.88,7.49,0,4.75-4.26,6.01-8.2,6.01-5.56,0-10.89-2.42-11.3-7.04Z"/><path class="cls-1" d="M37.64,8.87h7.98V4.12h-12.96V.85h16.72V23.26h-3.77v-3.81c-1.39,2.87-3.59,4.57-7.4,4.57-5.42,0-9.28-3.18-9.28-7.76,0-4.89,4.17-7.35,8.7-7.4Zm-4.93,7.4c0,2.47,2.51,4.44,5.56,4.44,4.75,0,7.31-3.05,7.35-8.83h-7.58c-3.23,0-5.33,1.7-5.33,4.3v.09Z"/><path class="cls-1" d="M80.14,.85V13.36c0,5.07,2.2,7.13,6.46,7.13,4.98,0,7.58-2.33,7.58-7.44V.85h3.77V23.26h-3.77v-3.99c-2.06,3.27-4.89,4.75-8.34,4.75-6.28,0-9.46-4.17-9.46-8.52V.85h3.77Z"/><path class="cls-1" d="M112.19,.13c6.5,0,11.43,5.2,11.52,11.88,0,.49,0,.99-.04,1.43l-.99,.04h-18.16c.85,4.21,3.86,7.22,7.67,7.22,2.91,0,5.33-1.61,6.68-4.12h4.03c-1.66,4.39-5.74,7.4-10.71,7.4-6.59,0-11.52-5.16-11.52-11.97S105.6,.13,112.19,.13Zm7.67,10.18c-.85-4.03-3.72-6.9-7.62-6.9s-6.81,2.82-7.67,6.9h15.29Z"/><g><path class="cls-1" d="M129.41,7.94c-1,.67-1.98,1.38-2.92,2.13v14.32h4.1V7.16c-.41,.24-.79,.52-1.18,.78Z"/><path class="cls-1" d="M126.49,0V6.09c1.32-1.12,2.69-2.17,4.1-3.17V0c-1.37,0-2.73,0-4.1,0Z"/></g><path class="cls-1" d="M62.53,.13c6.48,0,11.34,5.08,11.34,11.89,0,3.06-.98,5.8-2.67,7.89l3.06,4.17h-3.81l-1.53-2.09c-1.79,1.21-3.98,1.92-6.39,1.92-6.45,0-11.34-5.08-11.34-11.89S56.08,.13,62.53,.13Zm.03,20.89c1.73,0,3.29-.55,4.56-1.5l-3.65-4.95h3.81l1.92,2.64c.88-1.43,1.4-3.23,1.4-5.18,0-5.12-3.42-8.99-8.08-8.99s-8.05,3.88-8.05,8.99,3.42,8.99,8.08,8.99Z"/></g><rect class="cls-1" y="28.46" width="138.32" height=".13"/></g></g></svg>